<svg id="visual" viewBox="0 0 900 600" width="900" height="600" xmlns="http://www.w3.org/2000/svg" xmlns:xlink="http://www.w3.org/1999/xlink" version="1.1"><path d="M0 213L129 223L257 184L386 166L514 249L643 178L771 204L900 181L900 0L771 0L643 0L514 0L386 0L257 0L129 0L0 0Z" fill="#f5730a"></path><path d="M0 163L129 138L257 196L386 183L514 189L643 180L771 165L900 183L900 0L771 0L643 0L514 0L386 0L257 0L129 0L0 0Z" fill="#da5b09"></path><path d="M0 137L129 127L257 101L386 103L514 112L643 116L771 104L900 115L900 0L771 0L643 0L514 0L386 0L257 0L129 0L0 0Z" fill="#be4407"></path><path d="M0 94L129 57L257 118L386 73L514 83L643 97L771 110L900 88L900 0L771 0L643 0L514 0L386 0L257 0L129 0L0 0Z" fill="#a32d04"></path><path d="M0 44L129 38L257 25L386 72L514 25L643 43L771 63L900 56L900 0L771 0L643 0L514 0L386 0L257 0L129 0L0 0Z" fill="#871400"></path></svg>